<svg width="29" height="25" viewBox="0 0 29 25" fill="none" xmlns="http://www.w3.org/2000/svg">
<path d="M10.2647 20.53C4.57963 20.53 0 15.9502 0 10.265C0 4.57977 4.57963 0 10.2647 0C15.9497 0 20.5294 4.57977 20.5294 10.265C20.5294 15.9502 15.9497 20.53 10.2647 20.53ZM10.2647 1.57923C5.44818 1.57923 1.57918 5.44835 1.57918 10.265C1.57918 15.0817 5.44818 18.9508 10.2647 18.9508C15.0812 18.9508 18.9502 15.0817 18.9502 10.265C18.9502 5.44835 15.0812 1.57923 10.2647 1.57923Z" fill="white"/>
<path d="M21.9095 16.7927L29 23.8835L27.8835 25L20.793 17.9092L21.9095 16.7927Z" fill="white"/>
</svg>
