<svg width="15" height="15" viewBox="0 0 15 15" fill="none" xmlns="http://www.w3.org/2000/svg">
<path d="M4.62988 14.4292L6.3866 12.6292C5.77278 12.4959 5.18807 12.2529 4.66063 11.9117L4.62988 14.4292Z" fill="#0D75FF"/>
<path d="M10.3699 0.571045L8.61365 2.3708C9.22749 2.5042 9.81219 2.74735 10.3396 3.08855L10.3699 0.571045Z" fill="#0D75FF"/>
<path d="M2.37102 8.61353L0.570801 10.3698L3.08826 10.3393C2.74717 9.81193 2.50418 9.22729 2.37102 8.61353Z" fill="#0D75FF"/>
<path d="M12.629 6.38676L14.4292 4.63L11.9117 4.66075C12.2528 5.18819 12.4958 5.77292 12.629 6.38676Z" fill="#0D75FF"/>
<path d="M3.0885 4.66051L0.571045 4.62976L2.37126 6.38651C2.50416 5.77259 2.74716 5.18781 3.0885 4.66051Z" fill="#0D75FF"/>
<path d="M11.9115 10.3395L14.429 10.37L12.6287 8.61353C12.4958 9.22744 12.2528 9.8122 11.9115 10.3395Z" fill="#0D75FF"/>
<path d="M6.3866 2.3708L4.62988 0.570801L4.66063 3.0883C5.18807 2.74719 5.77278 2.50412 6.3866 2.3708Z" fill="#0D75FF"/>
<path d="M8.61316 12.6292L10.3699 14.429L10.3391 11.9117C9.81163 12.2528 9.22695 12.4958 8.61316 12.6292Z" fill="#0D75FF"/>
<path d="M3.18803 10.4905L2.19629 12.8032L4.50928 11.812C3.99374 11.4536 3.54631 11.0061 3.18803 10.4905Z" fill="#0D75FF"/>
<path d="M11.8119 4.50978L12.8031 2.19678L10.4906 3.18803C11.0061 3.54649 11.4536 3.9941 11.8119 4.50978Z" fill="#0D75FF"/>
<path d="M2.25001 7.50007C2.25001 7.18057 2.28326 6.86907 2.33801 6.56482L0 7.49982L2.33801 8.43482C2.28087 8.12648 2.25142 7.81365 2.25001 7.50007Z" fill="#0D75FF"/>
<path d="M15 7.50007L12.662 6.56482C12.7167 6.86907 12.75 7.18057 12.75 7.50007C12.75 7.81982 12.7167 8.13132 12.662 8.43532L15 7.50007Z" fill="#0D75FF"/>
<path d="M4.50977 3.18778L2.19678 2.19653L3.18802 4.50954C3.54661 3.99395 3.99418 3.54637 4.50977 3.18778Z" fill="#0D75FF"/>
<path d="M10.4901 11.812L12.8031 12.8032L11.8119 10.4905C11.4533 11.006 11.0057 11.4536 10.4901 11.812Z" fill="#0D75FF"/>
<path d="M8.43484 2.338L7.49984 0L6.56484 2.338C6.86859 2.28325 7.18009 2.25 7.49984 2.25C7.81959 2.25 8.13109 2.28325 8.43484 2.338Z" fill="#0D75FF"/>
<path d="M6.56494 12.662L7.49994 15L8.43494 12.662C8.13119 12.7167 7.81969 12.75 7.49994 12.75C7.18019 12.75 6.86869 12.7167 6.56494 12.662Z" fill="#0D75FF"/>
<path d="M7.49997 12.25C10.1233 12.25 12.2499 10.1234 12.2499 7.5C12.2499 4.87665 10.1233 2.75 7.49997 2.75C4.87663 2.75 2.75 4.87665 2.75 7.5C2.75 10.1234 4.87663 12.25 7.49997 12.25Z" fill="#0D75FF"/>
</svg>
