<svg width="32" height="28" viewBox="0 0 32 28" fill="none" xmlns="http://www.w3.org/2000/svg">
<path d="M8.54614 16.9857C8.54614 16.9857 8.73387 23.4161 8.24678 24.0485C7.75969 24.6808 7.20664 24.9946 7.30812 25.5247C7.38423 25.9122 7.69627 25.9241 8.78207 25.9241C9.86788 25.9241 10.3068 25.3845 10.5706 24.6832C10.8319 23.9795 10.9334 23.0786 11.045 21.9185C11.1465 20.8677 11.319 18.1458 11.319 18.1458L8.54614 16.9857Z" fill="#865A52"/>
<path d="M19.4955 16.1774C19.4955 16.1774 19.4321 17.8747 19.7568 18.7424C19.9979 19.3819 20.6575 20.8867 20.5078 21.7639C20.3581 22.6435 19.8888 23.5444 19.3459 23.8725C18.9958 24.0841 18.8461 24.6451 18.9958 24.8804C19.1454 25.1158 21.246 25.092 21.5454 24.9042C21.8447 24.7164 22.7885 22.5317 22.9458 21.9279C23.2197 20.8748 23.821 17.8058 23.821 17.8058L22.8722 14.8295L19.4955 16.1774Z" fill="#865A52"/>
<path d="M10.3473 7.14623L7.42225 8.34198L6.32123 12.1479C6.32123 12.1479 6.92248 14.1044 7.27004 15.0173C7.49836 15.6116 7.8586 17.2186 9.49492 18.2979C11.0323 19.3106 13.1709 19.2583 13.1709 19.2583C13.1709 19.2583 13.3155 19.8193 13.346 21.7187C13.379 23.8154 13.4373 24.9494 13.2952 25.1158C13.0872 25.363 12.2703 26.4042 12.5443 26.7561C12.8183 27.1079 13.5946 27.1768 14.1705 27.1079C14.7464 27.039 15.2715 26.7323 15.3958 26.5683C15.5201 26.4042 15.8372 22.9858 15.8956 22.0943C15.959 21.122 15.9717 19.729 15.9945 19.1893C16.0097 18.8613 16.0199 18.5332 16.0199 18.5332C16.0199 18.5332 16.8266 18.3097 17.7957 17.7606C18.5796 17.3137 19.3712 16.7289 20.1449 16.5197C20.9187 16.3081 21.7204 16.1441 21.7204 16.1441C21.7204 16.1441 22.6083 17.8652 23.4074 18.7329C24.2065 19.6006 26.0204 21.393 26.1448 21.8376C26.2691 22.2821 26.5456 23.8749 26.2691 24.5072C25.9951 25.1396 25.5689 25.703 25.8429 25.9835C26.1169 26.264 27.5553 26.2521 27.9815 25.9026C28.4077 25.5508 28.7197 24.4383 28.6944 23.5016C28.669 22.565 28.4204 20.7845 28.2682 20.2924C28.1159 19.8003 28.017 17.5514 28.017 17.5514L27.3168 12.4689L26.1169 10.6645L20.5179 10.5005L12.5418 9.98466L10.3473 7.14623Z" fill="#F1A058"/>
<path d="M28.0094 2.98137L18.8968 6.7588L19.4016 7.95455L28.7705 4.19376L28.0094 2.98137Z" fill="#02BFF1"/>
<path d="M17.4457 8.8555C17.9201 8.43473 17.8465 8.10667 17.9708 8.01158C18.0951 7.91887 18.359 8.33964 18.8461 8.16373C19.153 8.05437 19.3839 7.73107 19.1708 7.25087C19.0744 7.03454 18.7573 6.75878 18.3843 6.87526C17.7755 7.06544 17.8973 7.49572 17.7476 7.56704C17.5979 7.63836 17.1463 7.14627 16.4715 7.54327C16.0047 7.81903 16.5222 8.97199 16.5222 8.97199L17.4457 8.8555Z" fill="#BDBDBF"/>
<path d="M5.97119 2.81255C5.97119 2.81255 6.71958 0.0240471 7.2219 0.000274678C7.72167 -0.0234977 8.02103 1.50031 8.37112 2.81255C8.55378 3.49957 5.97119 2.81255 5.97119 2.81255Z" fill="#875A51"/>
<path d="M16.0225 16.881C16.0225 16.881 18.1002 16.049 19.0719 15.2764C20.2211 14.3635 21.5479 12.1361 23.273 11.4585C24.3563 11.033 25.2975 10.85 25.5233 10.9427C25.7491 11.0354 26.6725 11.6677 26.8983 12.6995C27.1241 13.7312 27.048 16.7527 27.0987 17.5253C27.1494 18.2979 27.5604 19.9619 28.3367 20.4659C28.8669 20.8106 29.9248 21.1577 30.8001 21.1101C31.6753 21.0626 32 21.0174 32 20.9223C32 20.8296 31.2745 20.4184 30.5261 19.6576C29.6255 18.7448 28.9253 16.0371 28.6513 14.8437C28.3773 13.648 27.3017 11.2707 26.0002 10.0988C24.6988 8.92678 22.1263 8.48224 20.0257 8.43469C18.671 8.40379 15.1498 9.13836 15.1498 9.13836L12.826 8.17795C12.826 8.17795 12.3262 7.21755 11.7021 6.28092C11.078 5.34428 10.3017 4.33633 10.3017 4.33633L8.77702 5.88154C8.77702 5.88154 9.07638 7.49806 9.22606 8.08286C9.37574 8.66766 9.62689 9.83964 10.251 10.6598C10.8751 11.4799 11.2759 12.1598 11.2759 12.1598L6.77539 13.6361L6.97581 14.1995C6.97581 14.1995 9.22606 13.648 10.0506 13.4744C10.7609 13.3223 12.1638 12.8896 12.3871 12.9348C12.6129 12.9824 13.2116 13.3651 13.6378 13.755C14.2137 14.2827 15.3274 15.4856 15.576 15.759C16.0098 16.2368 16.0225 16.881 16.0225 16.881Z" fill="url(#paint0_linear_3_42)"/>
<path d="M7.34616 2.67226C7.34616 2.67226 5.74536 2.16354 4.6215 2.88859C3.49764 3.61365 3.66001 4.35297 3.13486 4.65726C2.60972 4.96155 2.05921 5.06614 1.28545 5.20878C0.511683 5.35141 0.772987 6.09311 0.772987 6.09311C0.772987 6.09311 0.372153 6.79677 0.674047 7.10106C0.973404 7.40535 1.26261 7.69299 1.46049 7.74054C1.66091 7.78808 1.84864 7.91645 1.84864 7.91645C1.84864 7.91645 2.17337 8.4133 2.82282 8.48461C3.47227 8.55593 5.29886 8.50839 5.29886 8.50839L5.55002 9.07179L6.77535 9.02425C6.77535 9.02425 7.74953 6.19058 7.80027 6.04794C7.85101 5.90531 7.34616 2.67226 7.34616 2.67226Z" fill="url(#paint1_radial_3_42)"/>
<path d="M6.33394 8.52746C6.70687 8.23981 7.08234 7.69542 7.09756 6.72313C7.11024 5.92676 6.78552 5.55115 6.55973 5.3063C6.33394 5.06144 5.99653 4.42672 6.235 3.71355C6.47348 3.00038 7.05951 2.66994 7.64807 2.04948C8.23664 1.42902 9.65985 0.245155 10.0099 0.421071C10.36 0.596987 10.5731 2.01382 10.5985 2.7056C10.6239 3.41401 10.7989 5.36573 10.0734 5.91487C9.47212 6.3713 9.12456 6.32376 9.12456 6.32376C9.12456 6.32376 9.2235 7.90462 9.20067 8.0116C9.1753 8.11619 8.59942 8.5964 8.37617 8.7842C8.15292 8.972 7.75209 9.39277 7.75209 9.39277C7.75209 9.39277 8.53853 9.39277 8.58927 9.48548C8.64001 9.5782 8.01339 10.27 7.50093 10.8548C7.22694 11.1686 6.36439 12.2954 6.36439 12.2954C6.36439 12.2954 5.71493 9.76124 5.57794 9.29768C5.45363 8.87691 5.40289 8.73428 5.40289 8.73428C5.40289 8.73428 5.98385 8.79846 6.33394 8.52746Z" fill="#CD8C56"/>
<path d="M5.02746 5.79363C5.3273 5.79363 5.57036 5.51371 5.57036 5.16842C5.57036 4.82312 5.3273 4.54321 5.02746 4.54321C4.72762 4.54321 4.48456 4.82312 4.48456 5.16842C4.48456 5.51371 4.72762 5.79363 5.02746 5.79363Z" fill="#010206"/>
<path d="M0.795821 6.83008C0.795821 6.83008 1.30828 6.57334 1.32096 6.03371C1.32858 5.66999 1.28291 5.18979 1.28291 5.18979C1.28291 5.18979 0.0575761 5.23733 0.0068376 5.7627C-0.0439009 6.28807 0.199644 6.72311 0.344249 6.9228C0.531981 7.17954 0.9455 7.89509 2.05667 8.071C3.16785 8.24692 4.2435 7.91886 4.2435 7.91886L4.19276 7.65023C4.19276 7.65023 2.63002 7.9664 1.87909 7.70966C1.12816 7.45292 0.795821 6.83008 0.795821 6.83008Z" fill="#464C52"/>
<path d="M4.80673 7.58603C4.86 7.75957 4.71286 7.89269 4.50737 7.93786C4.30188 7.98065 4.04819 7.99016 4.02028 7.83326C3.99237 7.67636 4.20801 7.51709 4.36784 7.47192C4.52513 7.42675 4.75853 7.43626 4.80673 7.58603Z" fill="#010206"/>
<path d="M9.6421 1.70713C9.43915 1.58827 8.42184 2.5558 8.06667 3.14773C7.68106 3.78959 7.90684 4.42193 8.31021 4.65966C8.71359 4.89738 9.27678 4.56457 9.48227 4.07961C9.70045 3.57088 9.85774 1.83312 9.6421 1.70713Z" fill="#FFA9AB"/>
<path d="M12.3464 10.6955C12.3464 10.6955 6.43285 12.148 6.35928 12.3001C6.28317 12.4523 6.69669 13.7289 6.7728 13.7645C6.84891 13.8002 12.8843 12.2645 12.8843 12.2645L12.3464 10.6955Z" fill="#484C51"/>
<path d="M15.3958 8.23507C16.4258 8.29212 20.6397 8.12334 20.0207 8.43476C19.4017 8.74617 18.7826 9.3072 18.2017 10.396C17.6207 11.4848 17.3391 13.9452 14.6398 13.6124C11.9406 13.2796 11.8467 10.3627 12.146 9.50214C12.4454 8.64158 12.8336 7.96169 12.8336 7.96169C12.8336 7.96169 13.8204 8.14711 15.3958 8.23507Z" fill="#FF5F5C"/>
<path d="M15.5709 6.72549C16.7683 6.77779 16.6846 7.72631 16.7201 8.7295C16.7556 9.7327 16.7581 15.0197 16.7581 15.9325C16.7581 16.8454 16.7201 18.3335 16.7201 18.3335C16.7201 18.3335 16.6212 18.4334 16.3751 18.4928C16.1645 18.5427 16.0199 18.5332 16.0199 18.5332C16.0199 18.5332 16.1138 16.6124 15.8702 16.1917C15.6267 15.7709 14.8834 14.984 14.8834 14.984L14.8453 8.23741L14.3582 8.14708C14.3582 8.14708 14.3912 6.67081 15.5709 6.72549Z" fill="#484C51"/>
<defs>
<linearGradient id="paint0_linear_3_42" x1="18.9953" y1="18.809" x2="21.619" y2="7.0647" gradientUnits="userSpaceOnUse">
<stop offset="0.258" stop-color="#CA8E53"/>
<stop offset="0.456" stop-color="#A67352"/>
<stop offset="0.628" stop-color="#8E6151"/>
<stop offset="0.734" stop-color="#855A51"/>
</linearGradient>
<radialGradient id="paint1_radial_3_42" cx="0" cy="0" r="1" gradientUnits="userSpaceOnUse" gradientTransform="translate(7.25255 1.8621) scale(6.24692 5.85371)">
<stop offset="0.037" stop-color="#CA8E53"/>
<stop offset="0.067" stop-color="#C68B53"/>
<stop offset="0.4" stop-color="#A37152"/>
<stop offset="0.672" stop-color="#8D6051"/>
<stop offset="0.847" stop-color="#855A51"/>
</radialGradient>
</defs>
</svg>
